<svg xmlns="http://www.w3.org/2000/svg" xmlns:xlink="http://www.w3.org/1999/xlink" width="2000" zoomAndPan="magnify" viewBox="0 0 1500 1499.999933" height="2000" preserveAspectRatio="xMidYMid meet" version="1.0"><defs><clipPath id="42d24dd01d"><path d="M 277.636719 150 L 1222.636719 150 L 1222.636719 1350 L 277.636719 1350 Z M 277.636719 150 " clip-rule="nonzero"/></clipPath><clipPath id="db8278de3e"><path d="M 277.636719 175 L 1197 175 L 1197 1325 L 277.636719 1325 Z M 277.636719 175 " clip-rule="nonzero"/></clipPath><clipPath id="a38234acef"><path d="M 354 175 L 1222.636719 175 L 1222.636719 1350 L 354 1350 Z M 354 175 " clip-rule="nonzero"/></clipPath></defs><g clip-path="url(#42d24dd01d)"><path fill="#7e7e7e" d="M 1222.335938 839.363281 L 1222.335938 1069.148438 L 1196.804688 1069.148438 L 1196.804688 1094.679688 L 1145.742188 1094.679688 L 1145.742188 1120.210938 L 1120.207031 1120.210938 L 1120.207031 1145.746094 L 1069.144531 1145.746094 L 1069.144531 1171.277344 L 1043.613281 1171.277344 L 1043.613281 1196.808594 L 992.550781 1196.808594 L 992.550781 1222.339844 L 967.015625 1222.339844 L 967.015625 1247.871094 L 915.953125 1247.871094 L 915.953125 1273.402344 L 890.421875 1273.402344 L 890.421875 1298.9375 L 839.359375 1298.9375 L 839.359375 1324.46875 L 813.824219 1324.46875 L 813.824219 1350 L 711.699219 1350 L 711.699219 1324.46875 L 686.164062 1324.46875 L 686.164062 1298.9375 L 635.101562 1298.9375 L 635.101562 1273.402344 L 609.570312 1273.402344 L 609.570312 1247.871094 L 558.507812 1247.871094 L 558.507812 1222.339844 L 532.972656 1222.339844 L 532.972656 1196.808594 L 481.910156 1196.808594 L 481.910156 1171.277344 L 456.378906 1171.277344 L 456.378906 1145.746094 L 405.316406 1145.746094 L 405.316406 1120.210938 L 379.78125 1120.210938 L 379.78125 1094.679688 L 328.71875 1094.679688 L 328.71875 1069.148438 L 303.1875 1069.148438 L 303.1875 1043.617188 L 277.65625 1043.617188 L 277.65625 864.894531 L 303.1875 864.894531 L 303.1875 839.363281 L 328.71875 839.363281 L 328.71875 813.828125 L 354.25 813.828125 L 354.25 788.296875 L 379.78125 788.296875 L 379.78125 762.765625 L 354.25 762.765625 L 354.25 737.234375 L 328.71875 737.234375 L 328.71875 277.660156 L 354.25 277.660156 L 354.25 252.128906 L 379.78125 252.128906 L 379.78125 226.597656 L 430.847656 226.597656 L 430.847656 201.0625 L 456.378906 201.0625 L 456.378906 175.53125 L 507.441406 175.53125 L 507.441406 150 L 558.507812 150 L 558.507812 175.53125 L 609.570312 175.53125 L 609.570312 201.0625 L 660.632812 201.0625 L 660.632812 226.597656 L 711.699219 226.597656 L 711.699219 201.0625 L 762.761719 201.0625 L 762.761719 175.53125 L 813.824219 175.53125 L 813.824219 201.0625 L 839.359375 201.0625 L 839.359375 226.597656 L 890.421875 226.597656 L 890.421875 252.128906 L 915.953125 252.128906 L 915.953125 277.660156 L 967.015625 277.660156 L 967.015625 303.191406 L 992.550781 303.191406 L 992.550781 328.722656 L 1018.082031 328.722656 L 1018.082031 354.253906 L 1043.613281 354.253906 L 1043.613281 379.789062 L 1069.144531 379.789062 L 1069.144531 660.636719 L 1043.613281 660.636719 L 1043.613281 686.171875 L 1018.082031 686.171875 L 1018.082031 711.703125 L 1043.613281 711.703125 L 1043.613281 737.234375 L 1069.144531 737.234375 L 1069.144531 762.765625 L 1120.207031 762.765625 L 1120.207031 788.296875 L 1145.742188 788.296875 L 1145.742188 813.828125 L 1196.804688 813.828125 L 1196.804688 839.363281 Z M 1222.335938 839.363281 " fill-opacity="1" fill-rule="nonzero"/></g><path fill="#c0c0c0" d="M 379.78125 762.765625 L 430.847656 762.765625 L 430.847656 788.296875 L 456.378906 788.296875 L 456.378906 813.828125 L 507.441406 813.828125 L 507.441406 839.363281 L 532.972656 839.363281 L 532.972656 864.894531 L 584.039062 864.894531 L 584.039062 890.425781 L 609.570312 890.425781 L 609.570312 915.957031 L 660.632812 915.957031 L 660.632812 941.488281 L 737.230469 941.488281 L 737.230469 481.914062 L 686.164062 481.914062 L 686.164062 456.382812 L 660.632812 456.382812 L 660.632812 430.851562 L 609.570312 430.851562 L 609.570312 405.320312 L 584.039062 405.320312 L 584.039062 379.789062 L 532.972656 379.789062 L 532.972656 354.253906 L 507.441406 354.253906 L 507.441406 328.722656 L 456.378906 328.722656 L 456.378906 303.191406 L 430.847656 303.191406 L 430.847656 277.660156 L 379.78125 277.660156 L 379.78125 252.128906 L 354.25 252.128906 L 354.25 737.234375 L 379.78125 737.234375 Z M 405.316406 379.789062 L 405.316406 354.253906 L 456.378906 354.253906 L 456.378906 379.789062 L 481.910156 379.789062 L 481.910156 405.320312 L 532.972656 405.320312 L 532.972656 430.851562 L 558.507812 430.851562 L 558.507812 456.382812 L 609.570312 456.382812 L 609.570312 481.914062 L 635.101562 481.914062 L 635.101562 507.445312 L 686.164062 507.445312 L 686.164062 532.980469 L 711.699219 532.980469 L 711.699219 839.363281 L 686.164062 839.363281 L 686.164062 864.894531 L 635.101562 864.894531 L 635.101562 839.363281 L 609.570312 839.363281 L 609.570312 813.828125 L 558.507812 813.828125 L 558.507812 788.296875 L 532.972656 788.296875 L 532.972656 762.765625 L 481.910156 762.765625 L 481.910156 737.234375 L 456.378906 737.234375 L 456.378906 711.703125 L 405.316406 711.703125 L 405.316406 686.171875 L 379.78125 686.171875 L 379.78125 379.789062 Z M 711.699219 1120.210938 L 686.164062 1120.210938 L 686.164062 1094.679688 L 635.101562 1094.679688 L 635.101562 1069.148438 L 609.570312 1069.148438 L 609.570312 1043.617188 L 558.507812 1043.617188 L 558.507812 1018.085938 L 532.972656 1018.085938 L 532.972656 992.554688 L 481.910156 992.554688 L 481.910156 967.019531 L 456.378906 967.019531 L 456.378906 941.488281 L 405.316406 941.488281 L 405.316406 915.957031 L 379.78125 915.957031 L 379.78125 890.425781 L 328.71875 890.425781 L 328.71875 839.363281 L 303.1875 839.363281 L 303.1875 1043.617188 L 328.71875 1043.617188 L 328.71875 1069.148438 L 379.78125 1069.148438 L 379.78125 1094.679688 L 405.316406 1094.679688 L 405.316406 1120.210938 L 456.378906 1120.210938 L 456.378906 1145.746094 L 481.910156 1145.746094 L 481.910156 1171.277344 L 532.972656 1171.277344 L 532.972656 1196.808594 L 558.507812 1196.808594 L 558.507812 1222.339844 L 609.570312 1222.339844 L 609.570312 1247.871094 L 635.101562 1247.871094 L 635.101562 1273.402344 L 686.164062 1273.402344 L 686.164062 1298.9375 L 711.699219 1298.9375 L 711.699219 1324.46875 L 762.761719 1324.46875 L 762.761719 1145.746094 L 711.699219 1145.746094 Z M 1171.273438 890.425781 L 1171.273438 915.957031 L 1120.207031 915.957031 L 1120.207031 941.488281 L 1069.144531 941.488281 L 1069.144531 967.019531 L 1043.613281 967.019531 L 1043.613281 992.554688 L 992.550781 992.554688 L 992.550781 1018.085938 L 967.015625 1018.085938 L 967.015625 1043.617188 L 915.953125 1043.617188 L 915.953125 1069.148438 L 890.421875 1069.148438 L 890.421875 1094.679688 L 839.359375 1094.679688 L 839.359375 1120.210938 L 813.824219 1120.210938 L 813.824219 1145.746094 L 788.292969 1145.746094 L 788.292969 1324.46875 L 813.824219 1324.46875 L 813.824219 1298.9375 L 839.359375 1298.9375 L 839.359375 1273.402344 L 890.421875 1273.402344 L 890.421875 1247.871094 L 915.953125 1247.871094 L 915.953125 1222.339844 L 967.015625 1222.339844 L 967.015625 1196.808594 L 992.550781 1196.808594 L 992.550781 1171.277344 L 1043.613281 1171.277344 L 1043.613281 1145.746094 L 1069.144531 1145.746094 L 1069.144531 1120.210938 L 1120.207031 1120.210938 L 1120.207031 1094.679688 L 1145.742188 1094.679688 L 1145.742188 1069.148438 L 1196.804688 1069.148438 L 1196.804688 890.425781 Z M 430.847656 226.597656 L 379.78125 226.597656 L 379.78125 252.128906 L 430.847656 252.128906 Z M 456.378906 201.0625 L 430.847656 201.0625 L 430.847656 226.597656 L 456.378906 226.597656 Z M 507.441406 175.53125 L 456.378906 175.53125 L 456.378906 201.0625 L 507.441406 201.0625 Z M 558.507812 150 L 507.441406 150 L 507.441406 175.53125 L 558.507812 175.53125 Z M 354.25 813.828125 L 328.71875 813.828125 L 328.71875 839.363281 L 354.25 839.363281 Z M 379.78125 788.296875 L 354.25 788.296875 L 354.25 813.828125 L 379.78125 813.828125 Z M 992.550781 430.851562 L 941.484375 430.851562 L 941.484375 456.382812 L 992.550781 456.382812 Z M 1043.613281 405.320312 L 992.550781 405.320312 L 992.550781 430.851562 L 1043.613281 430.851562 Z M 1043.613281 405.320312 " fill-opacity="1" fill-rule="nonzero"/><g clip-path="url(#db8278de3e)"><path fill="#7e7e7e" d="M 839.359375 890.425781 L 839.359375 864.894531 L 890.421875 864.894531 L 890.421875 839.363281 L 915.953125 839.363281 L 915.953125 788.296875 L 941.484375 788.296875 L 941.484375 737.234375 L 915.953125 737.234375 L 915.953125 405.320312 L 890.421875 405.320312 L 890.421875 430.851562 L 864.890625 430.851562 L 864.890625 405.320312 L 890.421875 405.320312 L 890.421875 379.789062 L 864.890625 379.789062 L 864.890625 354.253906 L 813.824219 354.253906 L 813.824219 328.722656 L 788.292969 328.722656 L 788.292969 303.191406 L 737.230469 303.191406 L 737.230469 277.660156 L 711.699219 277.660156 L 711.699219 252.128906 L 660.632812 252.128906 L 660.632812 226.597656 L 609.570312 226.597656 L 609.570312 201.0625 L 558.507812 201.0625 L 558.507812 175.53125 L 507.441406 175.53125 L 507.441406 201.0625 L 456.378906 201.0625 L 456.378906 226.597656 L 430.847656 226.597656 L 430.847656 252.128906 L 379.78125 252.128906 L 379.78125 277.660156 L 430.847656 277.660156 L 430.847656 303.191406 L 456.378906 303.191406 L 456.378906 328.722656 L 507.441406 328.722656 L 507.441406 354.253906 L 532.972656 354.253906 L 532.972656 379.789062 L 584.039062 379.789062 L 584.039062 405.320312 L 609.570312 405.320312 L 609.570312 430.851562 L 660.632812 430.851562 L 660.632812 456.382812 L 686.164062 456.382812 L 686.164062 481.914062 L 737.230469 481.914062 L 737.230469 922.339844 L 762.761719 922.339844 L 762.761719 915.957031 L 788.292969 915.957031 L 788.292969 890.425781 Z M 813.824219 430.851562 L 839.359375 430.851562 L 839.359375 456.382812 L 813.824219 456.382812 Z M 762.761719 481.914062 L 762.761719 456.382812 L 788.292969 456.382812 L 788.292969 481.914062 Z M 1171.273438 890.425781 L 1171.273438 864.894531 L 1196.804688 864.894531 L 1196.804688 839.363281 L 1145.742188 839.363281 L 1145.742188 813.828125 L 1120.207031 813.828125 L 1120.207031 788.296875 L 1069.144531 788.296875 L 1069.144531 762.765625 L 1043.613281 762.765625 L 1043.613281 737.234375 L 967.015625 737.234375 L 967.015625 788.296875 L 941.484375 788.296875 L 941.484375 839.363281 L 915.953125 839.363281 L 915.953125 864.894531 L 890.421875 864.894531 L 890.421875 890.425781 L 839.359375 890.425781 L 839.359375 915.957031 L 788.292969 915.957031 L 788.292969 941.488281 L 737.230469 941.488281 L 737.230469 967.019531 L 660.632812 967.019531 L 660.632812 941.488281 L 609.570312 941.488281 L 609.570312 915.957031 L 584.039062 915.957031 L 584.039062 890.425781 L 532.972656 890.425781 L 532.972656 864.894531 L 507.441406 864.894531 L 507.441406 839.363281 L 456.378906 839.363281 L 456.378906 813.828125 L 430.847656 813.828125 L 430.847656 788.296875 L 379.78125 788.296875 L 379.78125 813.828125 L 354.25 813.828125 L 354.25 839.363281 L 328.71875 839.363281 L 328.71875 890.425781 L 379.78125 890.425781 L 379.78125 915.957031 L 405.316406 915.957031 L 405.316406 941.488281 L 456.378906 941.488281 L 456.378906 967.019531 L 481.910156 967.019531 L 481.910156 992.554688 L 532.972656 992.554688 L 532.972656 1018.085938 L 558.507812 1018.085938 L 558.507812 1043.617188 L 609.570312 1043.617188 L 609.570312 1069.148438 L 635.101562 1069.148438 L 635.101562 1094.679688 L 686.164062 1094.679688 L 686.164062 1120.210938 L 711.699219 1120.210938 L 711.699219 1145.746094 L 762.761719 1145.746094 L 762.761719 1324.46875 L 813.824219 1324.46875 L 813.824219 1298.9375 L 788.292969 1298.9375 L 788.292969 1273.402344 L 813.824219 1273.402344 L 813.824219 1247.871094 L 788.292969 1247.871094 L 788.292969 1222.339844 L 813.824219 1222.339844 L 813.824219 1196.808594 L 788.292969 1196.808594 L 788.292969 1171.277344 L 813.824219 1171.277344 L 813.824219 1145.746094 L 788.292969 1145.746094 L 788.292969 1120.210938 L 813.824219 1120.210938 L 813.824219 1094.679688 L 839.359375 1094.679688 L 839.359375 1069.148438 L 890.421875 1069.148438 L 890.421875 1043.617188 L 915.953125 1043.617188 L 915.953125 1018.085938 L 967.015625 1018.085938 L 967.015625 992.554688 L 992.550781 992.554688 L 992.550781 967.019531 L 1043.613281 967.019531 L 1043.613281 941.488281 L 1069.144531 941.488281 L 1069.144531 915.957031 L 1120.207031 915.957031 L 1120.207031 890.425781 Z M 686.164062 1324.46875 L 711.699219 1324.46875 L 711.699219 1298.9375 L 686.164062 1298.9375 Z M 635.101562 1273.402344 L 635.101562 1298.9375 L 686.164062 1298.9375 L 686.164062 1273.402344 Z M 609.570312 1247.871094 L 609.570312 1273.402344 L 635.101562 1273.402344 L 635.101562 1247.871094 Z M 558.507812 1222.339844 L 558.507812 1247.871094 L 609.570312 1247.871094 L 609.570312 1222.339844 Z M 532.972656 1196.808594 L 532.972656 1222.339844 L 558.507812 1222.339844 L 558.507812 1196.808594 Z M 481.910156 1171.277344 L 481.910156 1196.808594 L 532.972656 1196.808594 L 532.972656 1171.277344 Z M 456.378906 1145.746094 L 456.378906 1171.277344 L 481.910156 1171.277344 L 481.910156 1145.746094 Z M 405.316406 1120.210938 L 405.316406 1145.746094 L 456.378906 1145.746094 L 456.378906 1120.210938 Z M 379.78125 1094.679688 L 379.78125 1120.210938 L 405.316406 1120.210938 L 405.316406 1094.679688 Z M 328.71875 1069.148438 L 328.71875 1094.679688 L 379.78125 1094.679688 L 379.78125 1069.148438 Z M 303.1875 1043.617188 L 303.1875 1069.148438 L 328.71875 1069.148438 L 328.71875 1043.617188 Z M 277.65625 864.894531 L 277.65625 1043.617188 L 303.1875 1043.617188 L 303.1875 864.894531 Z M 737.230469 277.660156 L 788.292969 277.660156 L 788.292969 303.191406 L 813.824219 303.191406 L 813.824219 328.722656 L 864.890625 328.722656 L 864.890625 354.253906 L 890.421875 354.253906 L 890.421875 379.789062 L 915.953125 379.789062 L 915.953125 405.320312 L 941.484375 405.320312 L 941.484375 430.851562 L 992.550781 430.851562 L 992.550781 405.320312 L 1043.613281 405.320312 L 1043.613281 379.789062 L 1018.082031 379.789062 L 1018.082031 354.253906 L 992.550781 354.253906 L 992.550781 328.722656 L 967.015625 328.722656 L 967.015625 303.191406 L 915.953125 303.191406 L 915.953125 277.660156 L 890.421875 277.660156 L 890.421875 252.128906 L 839.359375 252.128906 L 839.359375 226.597656 L 813.824219 226.597656 L 813.824219 201.0625 L 762.761719 201.0625 L 762.761719 226.597656 L 711.699219 226.597656 L 711.699219 252.128906 L 737.230469 252.128906 Z M 941.484375 456.382812 L 941.484375 737.234375 L 967.015625 737.234375 L 967.015625 711.703125 L 992.550781 711.703125 L 992.550781 686.171875 L 1018.082031 686.171875 L 1018.082031 660.636719 L 1043.613281 660.636719 L 1043.613281 430.851562 L 992.550781 430.851562 L 992.550781 456.382812 Z M 686.164062 532.980469 L 686.164062 507.445312 L 635.101562 507.445312 L 635.101562 532.980469 Z M 635.101562 507.445312 L 635.101562 481.914062 L 609.570312 481.914062 L 609.570312 507.445312 Z M 609.570312 481.914062 L 609.570312 456.382812 L 558.507812 456.382812 L 558.507812 481.914062 Z M 558.507812 456.382812 L 558.507812 430.851562 L 532.972656 430.851562 L 532.972656 456.382812 Z M 532.972656 430.851562 L 532.972656 405.320312 L 481.910156 405.320312 L 481.910156 430.851562 Z M 481.910156 405.320312 L 481.910156 379.789062 L 456.378906 379.789062 L 456.378906 405.320312 Z M 456.378906 354.253906 L 405.316406 354.253906 L 405.316406 379.789062 L 456.378906 379.789062 Z M 405.316406 379.789062 L 379.78125 379.789062 L 379.78125 686.171875 L 405.316406 686.171875 Z M 354.25 277.660156 L 328.71875 277.660156 L 328.71875 737.234375 L 354.25 737.234375 Z M 1196.804688 915.957031 L 1171.273438 915.957031 L 1171.273438 941.488281 L 1196.804688 941.488281 Z M 1196.804688 992.554688 L 1196.804688 967.019531 L 1171.273438 967.019531 L 1171.273438 992.554688 Z M 1196.804688 1043.617188 L 1196.804688 1018.085938 L 1171.273438 1018.085938 L 1171.273438 1043.617188 Z M 1171.273438 967.019531 L 1171.273438 941.488281 L 1145.742188 941.488281 L 1145.742188 967.019531 Z M 1145.742188 1018.085938 L 1171.273438 1018.085938 L 1171.273438 992.554688 L 1145.742188 992.554688 Z M 1145.742188 1069.148438 L 1171.273438 1069.148438 L 1171.273438 1043.617188 L 1145.742188 1043.617188 Z M 1145.742188 941.488281 L 1145.742188 915.957031 L 1120.207031 915.957031 L 1120.207031 941.488281 Z M 1145.742188 992.554688 L 1145.742188 967.019531 L 1120.207031 967.019531 L 1120.207031 992.554688 Z M 1120.207031 1043.617188 L 1145.742188 1043.617188 L 1145.742188 1018.085938 L 1120.207031 1018.085938 Z M 1120.207031 941.488281 L 1094.675781 941.488281 L 1094.675781 967.019531 L 1120.207031 967.019531 Z M 1120.207031 992.554688 L 1094.675781 992.554688 L 1094.675781 1018.085938 L 1120.207031 1018.085938 Z M 1094.675781 1069.148438 L 1120.207031 1069.148438 L 1120.207031 1043.617188 L 1094.675781 1043.617188 Z M 1094.675781 967.019531 L 1069.144531 967.019531 L 1069.144531 992.554688 L 1094.675781 992.554688 Z M 1094.675781 1018.085938 L 1069.144531 1018.085938 L 1069.144531 1043.617188 L 1094.675781 1043.617188 Z M 1069.144531 992.554688 L 1043.613281 992.554688 L 1043.613281 1018.085938 L 1069.144531 1018.085938 Z M 1043.613281 1043.617188 L 1043.613281 1069.148438 L 1069.144531 1069.148438 L 1069.144531 1043.617188 Z M 1069.144531 1069.148438 L 1069.144531 1094.679688 L 1094.675781 1094.679688 L 1094.675781 1069.148438 Z M 1043.613281 1120.210938 L 1069.144531 1120.210938 L 1069.144531 1094.679688 L 1043.613281 1094.679688 Z M 1043.613281 1043.617188 L 1043.613281 1018.085938 L 1018.082031 1018.085938 L 1018.082031 1043.617188 Z M 1018.082031 1018.085938 L 1018.082031 992.554688 L 992.550781 992.554688 L 992.550781 1018.085938 Z M 1018.082031 1069.148438 L 1018.082031 1043.617188 L 992.550781 1043.617188 L 992.550781 1069.148438 Z M 1018.082031 1094.679688 L 1043.613281 1094.679688 L 1043.613281 1069.148438 L 1018.082031 1069.148438 Z M 992.550781 1120.210938 L 1018.082031 1120.210938 L 1018.082031 1094.679688 L 992.550781 1094.679688 Z M 1018.082031 1145.746094 L 1043.613281 1145.746094 L 1043.613281 1120.210938 L 1018.082031 1120.210938 Z M 992.550781 1171.277344 L 1018.082031 1171.277344 L 1018.082031 1145.746094 L 992.550781 1145.746094 Z M 967.015625 1043.617188 L 941.484375 1043.617188 L 941.484375 1069.148438 L 967.015625 1069.148438 Z M 967.015625 1094.679688 L 992.550781 1094.679688 L 992.550781 1069.148438 L 967.015625 1069.148438 Z M 941.484375 1120.210938 L 967.015625 1120.210938 L 967.015625 1094.679688 L 941.484375 1094.679688 Z M 967.015625 1145.746094 L 992.550781 1145.746094 L 992.550781 1120.210938 L 967.015625 1120.210938 Z M 941.484375 1171.277344 L 967.015625 1171.277344 L 967.015625 1145.746094 L 941.484375 1145.746094 Z M 992.550781 1043.617188 L 992.550781 1018.085938 L 967.015625 1018.085938 L 967.015625 1043.617188 Z M 915.953125 1094.679688 L 890.421875 1094.679688 L 890.421875 1120.210938 L 915.953125 1120.210938 Z M 915.953125 1145.746094 L 941.484375 1145.746094 L 941.484375 1120.210938 L 915.953125 1120.210938 Z M 890.421875 1145.746094 L 890.421875 1171.277344 L 915.953125 1171.277344 L 915.953125 1145.746094 Z M 915.953125 1171.277344 L 915.953125 1196.808594 L 941.484375 1196.808594 L 941.484375 1171.277344 Z M 890.421875 1222.339844 L 915.953125 1222.339844 L 915.953125 1196.808594 L 890.421875 1196.808594 Z M 941.484375 1069.148438 L 915.953125 1069.148438 L 915.953125 1094.679688 L 941.484375 1094.679688 Z M 864.890625 1145.746094 L 839.359375 1145.746094 L 839.359375 1171.277344 L 864.890625 1171.277344 Z M 864.890625 1196.808594 L 890.421875 1196.808594 L 890.421875 1171.277344 L 864.890625 1171.277344 Z M 839.359375 1222.339844 L 864.890625 1222.339844 L 864.890625 1196.808594 L 839.359375 1196.808594 Z M 864.890625 1247.871094 L 890.421875 1247.871094 L 890.421875 1222.339844 L 864.890625 1222.339844 Z M 839.359375 1273.402344 L 864.890625 1273.402344 L 864.890625 1247.871094 L 839.359375 1247.871094 Z M 890.421875 1145.746094 L 890.421875 1120.210938 L 864.890625 1120.210938 L 864.890625 1145.746094 Z M 864.890625 1120.210938 L 864.890625 1094.679688 L 839.359375 1094.679688 L 839.359375 1120.210938 Z M 839.359375 1120.210938 L 813.824219 1120.210938 L 813.824219 1145.746094 L 839.359375 1145.746094 Z M 839.359375 1171.277344 L 813.824219 1171.277344 L 813.824219 1196.808594 L 839.359375 1196.808594 Z M 839.359375 1222.339844 L 813.824219 1222.339844 L 813.824219 1247.871094 L 839.359375 1247.871094 Z M 1120.207031 1094.679688 L 1145.742188 1094.679688 L 1145.742188 1069.148438 L 1120.207031 1069.148438 Z M 1094.675781 1120.210938 L 1120.207031 1120.210938 L 1120.207031 1094.679688 L 1094.675781 1094.679688 Z M 967.015625 1196.808594 L 992.550781 1196.808594 L 992.550781 1171.277344 L 967.015625 1171.277344 Z M 941.484375 1222.339844 L 967.015625 1222.339844 L 967.015625 1196.808594 L 941.484375 1196.808594 Z M 813.824219 1298.9375 L 839.359375 1298.9375 L 839.359375 1273.402344 L 813.824219 1273.402344 Z M 813.824219 1298.9375 " fill-opacity="1" fill-rule="nonzero"/></g><path fill="#fefefe" d="M 635.101562 532.980469 L 686.164062 532.980469 L 686.164062 839.363281 L 635.101562 839.363281 L 635.101562 813.828125 L 609.570312 813.828125 L 609.570312 788.296875 L 558.507812 788.296875 L 558.507812 762.765625 L 532.972656 762.765625 L 532.972656 737.234375 L 481.910156 737.234375 L 481.910156 711.703125 L 456.378906 711.703125 L 456.378906 686.171875 L 405.316406 686.171875 L 405.316406 379.789062 L 456.378906 379.789062 L 456.378906 405.320312 L 481.910156 405.320312 L 481.910156 430.851562 L 532.972656 430.851562 L 532.972656 456.382812 L 558.507812 456.382812 L 558.507812 481.914062 L 609.570312 481.914062 L 609.570312 507.445312 L 635.101562 507.445312 Z M 430.847656 277.660156 L 354.25 277.660156 L 354.25 354.253906 L 379.78125 354.253906 L 379.78125 303.191406 L 430.847656 303.191406 Z M 303.1875 864.894531 L 303.1875 1043.617188 L 328.71875 1043.617188 L 328.71875 864.894531 Z M 328.71875 1069.148438 L 354.25 1069.148438 L 354.25 1043.617188 L 328.71875 1043.617188 Z M 737.230469 1145.746094 L 737.230469 1324.46875 L 762.761719 1324.46875 L 762.761719 1145.746094 Z M 737.230469 1145.746094 " fill-opacity="1" fill-rule="nonzero"/><path fill="#fefefe" d="M 507.441406 558.511719 L 507.441406 584.042969 L 481.910156 584.042969 L 481.910156 660.636719 L 456.378906 660.636719 L 456.378906 481.914062 L 481.910156 481.914062 L 481.910156 558.511719 Z M 532.972656 584.042969 L 507.441406 584.042969 L 507.441406 609.574219 L 532.972656 609.574219 L 532.972656 711.703125 L 558.507812 711.703125 L 558.507812 532.980469 L 532.972656 532.980469 Z M 584.039062 762.765625 L 609.570312 762.765625 L 609.570312 635.105469 L 584.039062 635.105469 Z M 584.039062 584.042969 L 584.039062 609.574219 L 609.570312 609.574219 L 609.570312 584.042969 Z M 584.039062 584.042969 " fill-opacity="1" fill-rule="nonzero"/><g clip-path="url(#a38234acef)"><path fill="#000000" d="M 711.699219 839.363281 L 686.164062 839.363281 L 686.164062 532.980469 L 711.699219 532.980469 Z M 686.164062 864.894531 L 686.164062 839.363281 L 635.101562 839.363281 L 635.101562 864.894531 Z M 635.101562 839.363281 L 635.101562 813.828125 L 609.570312 813.828125 L 609.570312 839.363281 Z M 609.570312 813.828125 L 609.570312 788.296875 L 558.507812 788.296875 L 558.507812 813.828125 Z M 558.507812 788.296875 L 558.507812 762.765625 L 532.972656 762.765625 L 532.972656 788.296875 Z M 532.972656 762.765625 L 532.972656 737.234375 L 481.910156 737.234375 L 481.910156 762.765625 Z M 481.910156 737.234375 L 481.910156 711.703125 L 456.378906 711.703125 L 456.378906 737.234375 Z M 456.378906 686.171875 L 405.316406 686.171875 L 405.316406 711.703125 L 456.378906 711.703125 Z M 711.699219 252.128906 L 711.699219 277.660156 L 737.230469 277.660156 L 737.230469 252.128906 Z M 737.230469 277.660156 L 737.230469 303.191406 L 788.292969 303.191406 L 788.292969 277.660156 Z M 788.292969 303.191406 L 788.292969 328.722656 L 813.824219 328.722656 L 813.824219 303.191406 Z M 813.824219 328.722656 L 813.824219 354.253906 L 864.890625 354.253906 L 864.890625 328.722656 Z M 864.890625 354.253906 L 864.890625 379.789062 L 890.421875 379.789062 L 890.421875 354.253906 Z M 890.421875 379.789062 L 890.421875 405.320312 L 915.953125 405.320312 L 915.953125 379.789062 Z M 915.953125 405.320312 L 915.953125 737.234375 L 941.484375 737.234375 L 941.484375 405.320312 Z M 558.507812 175.53125 L 558.507812 201.0625 L 609.570312 201.0625 L 609.570312 175.53125 Z M 609.570312 201.0625 L 609.570312 226.597656 L 660.632812 226.597656 L 660.632812 201.0625 Z M 660.632812 226.597656 L 660.632812 252.128906 L 711.699219 252.128906 L 711.699219 226.597656 Z M 762.761719 201.0625 L 711.699219 201.0625 L 711.699219 226.597656 L 762.761719 226.597656 Z M 813.824219 175.53125 L 762.761719 175.53125 L 762.761719 201.0625 L 813.824219 201.0625 Z M 839.359375 226.597656 L 839.359375 201.0625 L 813.824219 201.0625 L 813.824219 226.597656 Z M 890.421875 252.128906 L 890.421875 226.597656 L 839.359375 226.597656 L 839.359375 252.128906 Z M 915.953125 277.660156 L 915.953125 252.128906 L 890.421875 252.128906 L 890.421875 277.660156 Z M 967.015625 303.191406 L 967.015625 277.660156 L 915.953125 277.660156 L 915.953125 303.191406 Z M 1018.082031 354.253906 L 1018.082031 328.722656 L 992.550781 328.722656 L 992.550781 354.253906 Z M 1043.613281 379.789062 L 1043.613281 354.253906 L 1018.082031 354.253906 L 1018.082031 379.789062 Z M 992.550781 328.722656 L 992.550781 303.191406 L 967.015625 303.191406 L 967.015625 328.722656 Z M 1069.144531 660.636719 L 1069.144531 379.789062 L 1043.613281 379.789062 L 1043.613281 660.636719 Z M 1018.082031 686.171875 L 1043.613281 686.171875 L 1043.613281 660.636719 L 1018.082031 660.636719 Z M 1196.804688 839.363281 L 1196.804688 864.894531 L 1171.273438 864.894531 L 1171.273438 890.425781 L 1196.804688 890.425781 L 1196.804688 1069.148438 L 1222.335938 1069.148438 L 1222.335938 839.363281 Z M 1145.742188 1094.679688 L 1196.804688 1094.679688 L 1196.804688 1069.148438 L 1145.742188 1069.148438 Z M 1120.207031 1120.210938 L 1145.742188 1120.210938 L 1145.742188 1094.679688 L 1120.207031 1094.679688 Z M 1069.144531 1145.746094 L 1120.207031 1145.746094 L 1120.207031 1120.210938 L 1069.144531 1120.210938 Z M 1043.613281 1171.277344 L 1069.144531 1171.277344 L 1069.144531 1145.746094 L 1043.613281 1145.746094 Z M 992.550781 1196.808594 L 1043.613281 1196.808594 L 1043.613281 1171.277344 L 992.550781 1171.277344 Z M 967.015625 1222.339844 L 992.550781 1222.339844 L 992.550781 1196.808594 L 967.015625 1196.808594 Z M 915.953125 1247.871094 L 967.015625 1247.871094 L 967.015625 1222.339844 L 915.953125 1222.339844 Z M 890.421875 1273.402344 L 915.953125 1273.402344 L 915.953125 1247.871094 L 890.421875 1247.871094 Z M 839.359375 1298.9375 L 890.421875 1298.9375 L 890.421875 1273.402344 L 839.359375 1273.402344 Z M 813.824219 1324.46875 L 839.359375 1324.46875 L 839.359375 1298.9375 L 813.824219 1298.9375 Z M 711.699219 1350 L 813.824219 1350 L 813.824219 1324.46875 L 711.699219 1324.46875 Z M 354.25 737.234375 L 354.25 762.765625 L 379.78125 762.765625 L 379.78125 737.234375 Z M 379.78125 762.765625 L 379.78125 788.296875 L 430.847656 788.296875 L 430.847656 762.765625 Z M 430.847656 788.296875 L 430.847656 813.828125 L 456.378906 813.828125 L 456.378906 788.296875 Z M 456.378906 813.828125 L 456.378906 839.363281 L 507.441406 839.363281 L 507.441406 813.828125 Z M 507.441406 839.363281 L 507.441406 864.894531 L 532.972656 864.894531 L 532.972656 839.363281 Z M 532.972656 864.894531 L 532.972656 890.425781 L 584.039062 890.425781 L 584.039062 864.894531 Z M 584.039062 890.425781 L 584.039062 915.957031 L 609.570312 915.957031 L 609.570312 890.425781 Z M 609.570312 915.957031 L 609.570312 941.488281 L 660.632812 941.488281 L 660.632812 915.957031 Z M 660.632812 967.019531 L 737.230469 967.019531 L 737.230469 941.488281 L 660.632812 941.488281 Z M 737.230469 941.488281 L 788.292969 941.488281 L 788.292969 915.957031 L 737.230469 915.957031 Z M 788.292969 915.957031 L 839.359375 915.957031 L 839.359375 890.425781 L 788.292969 890.425781 Z M 839.359375 890.425781 L 890.421875 890.425781 L 890.421875 864.894531 L 839.359375 864.894531 Z M 890.421875 864.894531 L 915.953125 864.894531 L 915.953125 839.363281 L 890.421875 839.363281 Z M 915.953125 839.363281 L 941.484375 839.363281 L 941.484375 788.296875 L 915.953125 788.296875 Z M 941.484375 788.296875 L 967.015625 788.296875 L 967.015625 737.234375 L 941.484375 737.234375 Z M 1145.742188 813.828125 L 1145.742188 839.363281 L 1196.804688 839.363281 L 1196.804688 813.828125 Z M 1120.207031 788.296875 L 1120.207031 813.828125 L 1145.742188 813.828125 L 1145.742188 788.296875 Z M 1069.144531 762.765625 L 1069.144531 788.296875 L 1120.207031 788.296875 L 1120.207031 762.765625 Z M 1043.613281 737.234375 L 1043.613281 762.765625 L 1069.144531 762.765625 L 1069.144531 737.234375 Z M 1018.082031 711.703125 L 1018.082031 686.171875 L 992.550781 686.171875 L 992.550781 711.703125 L 967.015625 711.703125 L 967.015625 737.234375 L 1043.613281 737.234375 L 1043.613281 711.703125 Z M 1120.207031 915.957031 L 1171.273438 915.957031 L 1171.273438 890.425781 L 1120.207031 890.425781 Z M 1069.144531 941.488281 L 1120.207031 941.488281 L 1120.207031 915.957031 L 1069.144531 915.957031 Z M 1043.613281 967.019531 L 1069.144531 967.019531 L 1069.144531 941.488281 L 1043.613281 941.488281 Z M 992.550781 992.554688 L 1043.613281 992.554688 L 1043.613281 967.019531 L 992.550781 967.019531 Z M 967.015625 1018.085938 L 992.550781 1018.085938 L 992.550781 992.554688 L 967.015625 992.554688 Z M 915.953125 1043.617188 L 967.015625 1043.617188 L 967.015625 1018.085938 L 915.953125 1018.085938 Z M 890.421875 1069.148438 L 915.953125 1069.148438 L 915.953125 1043.617188 L 890.421875 1043.617188 Z M 839.359375 1094.679688 L 890.421875 1094.679688 L 890.421875 1069.148438 L 839.359375 1069.148438 Z M 813.824219 1120.210938 L 839.359375 1120.210938 L 839.359375 1094.679688 L 813.824219 1094.679688 Z M 788.292969 1145.746094 L 813.824219 1145.746094 L 813.824219 1120.210938 L 788.292969 1120.210938 Z M 711.699219 1222.339844 L 711.699219 1196.808594 L 660.632812 1196.808594 L 660.632812 1222.339844 Z M 635.101562 1171.277344 L 635.101562 1196.808594 L 660.632812 1196.808594 L 660.632812 1171.277344 Z M 584.039062 1145.746094 L 584.039062 1171.277344 L 635.101562 1171.277344 L 635.101562 1145.746094 Z M 584.039062 1145.746094 " fill-opacity="1" fill-rule="nonzero"/></g><path fill="#c0c0c0" d="M 890.421875 405.320312 L 890.421875 430.851562 L 839.359375 430.851562 L 839.359375 405.320312 Z M 788.292969 430.851562 L 788.292969 456.382812 L 839.359375 456.382812 L 839.359375 430.851562 Z M 737.230469 456.382812 L 737.230469 481.914062 L 788.292969 481.914062 L 788.292969 456.382812 Z M 737.230469 456.382812 " fill-opacity="1" fill-rule="nonzero"/></svg>